<?xml version="1.0" encoding="UTF-8" standalone="no"?>
<!-- Created with Inkscape (http://www.inkscape.org/) -->

<svg
   version="1.1"
   id="svg1"
   width="188.8"
   height="188.8"
   viewBox="0 0 188.8 188.8"
   sodipodi:docname="Hopnic logo.PNG"
   inkscape:export-filename="Hopnic logo.PNG.svg"
   inkscape:export-xdpi="96"
   inkscape:export-ydpi="96"
   xmlns:inkscape="http://www.inkscape.org/namespaces/inkscape"
   xmlns:sodipodi="http://sodipodi.sourceforge.net/DTD/sodipodi-0.dtd"
   xmlns="http://www.w3.org/2000/svg"
   xmlns:svg="http://www.w3.org/2000/svg">
  <defs
     id="defs1" />
  <sodipodi:namedview
     id="namedview1"
     pagecolor="#ffffff"
     bordercolor="#000000"
     borderopacity="0.25"
     inkscape:showpageshadow="2"
     inkscape:pageopacity="0.0"
     inkscape:pagecheckerboard="0"
     inkscape:deskcolor="#d1d1d1">
    <inkscape:page
       x="0"
       y="0"
       width="188.8"
       height="188.8"
       id="page2"
       margin="0"
       bleed="0" />
  </sodipodi:namedview>
  <g
     inkscape:groupmode="layer"
     inkscape:label="Image"
     id="g1">
    <path
       style="fill:#000000"
       d="m 31.869815,182.9103 c -2.20676,-0.82336 -3.27742,-1.48916 -4.72904,-2.94078 l -1.33092,-1.33093 -0.82895,-1.69429 -0.82894,-1.6943 -0.29464,-2.03807 -0.29464,-2.03808 V 95.013845 18.85385 l 0.28888,-1.99733 0.28888,-1.99732 0.78794,-1.72108 0.78793,-1.72108 1.15088,-1.27389 1.15088,-1.2738797 1.85663,-0.98957 1.85663,-0.98958 2.06924,-0.33572 2.06924,-0.33572 59.52,-5.6e-4 59.520005,-5.7e-4 1.86265,0.30506 1.86264,0.30505 1.65736,0.76328 1.65735,0.76327 1.40974,1.40982 1.40975,1.4098197 0.99025,2.08 0.99026,2.08 v 79.686725 79.686745 l -1.03998,2.11249 -1.03998,2.11249 -1.46397,1.34944 -1.46398,1.34945 -1.81604,0.85133 -1.81605,0.85133 -62.400005,0.0569 -62.4,0.0569 z m 126.400005,-3.7669 1.44,-0.67045 1.31767,-1.43647 1.31766,-1.43648 0.44234,-1.25308 0.44233,-1.25307 V 94.831215 16.56859 l -0.96332,-1.88362 -0.96333,-1.88363 -1.36476,-1.04094 -1.36475,-1.04093 -1.19192,-0.33103 -1.19192,-0.33103 -61.120005,0.005 -61.12,0.005 -1.44,0.65108 -1.44,0.65108 -1.06804,1.02189 c -0.58742,0.56205 -1.37942,1.5979 -1.76,2.3019 l -0.69196,1.28 -0.0825,78.389735 -0.0825,78.389745 0.48507,1.4604 0.48506,1.4604 0.98844,1.19914 0.98844,1.19915 1.32905,0.68688 c 0.73098,0.37779 1.83305,0.78997 2.44905,0.91596 l 1.12,0.22908 60.8,-0.0452 60.800005,-0.0452 z m -37.20733,-2.60955 c -0.0688,-0.132 -0.1133,-0.888 -0.0989,-1.68 l 0.0262,-1.44 1.01265,-0.0982 1.01265,-0.0982 0.19255,0.60669 0.19256,0.6067 -0.4895,1.17154 -0.4895,1.17154 h -0.61682 c -0.33925,0 -0.67311,-0.108 -0.74192,-0.24 z m -82.728675,-1.424 -0.384,-0.384 v -6.272 -6.272 l 0.228555,-0.40406 c 0.238433,-0.42152 0.783235,-0.36394 1.081205,-0.36394 l 0.466555,0.13037 0.269445,0.3758 c 0.119545,0.16673 0.19424,1.5744 0.19424,2.88 v 2.37383 h 2.38754 2.38754 l 0.0925,-2.8 0.0925,-2.8 h 0.8 0.8 l 0.0863,6.76336 0.0863,6.76336 -0.48626,0.1866 -0.48625,0.18659 -0.48,-0.18419 -0.48,-0.18419 v -3.00577 -3.00576 h -2.4 -2.4 v 2.816 2.816 l -0.384,0.384 c -0.2112,0.2112 -0.5424,0.384 -0.736,0.384 -0.1936,0 -0.5248,-0.1728 -0.736,-0.384 z m 12.51671,-0.0844 -1.01929,-0.44332 -0.50071,-0.96827 -0.50071,-0.96826 v -4.19178 -4.19178 l 0.50125,-0.96932 0.50126,-0.96932 1.08847,-0.45479 1.08846,-0.45479 h 1.14056 1.14056 l 1.08483,0.45327 1.08483,0.45327 0.58489,0.89266 0.58489,0.89265 v 4.34815 4.34815 l -0.58489,0.89265 -0.58489,0.89266 -1.08483,0.45327 -1.08483,0.45327 -1.21028,-0.0125 -1.21028,-0.0125 z m 4.04682,-2.15197 0.65247,-0.70034 v -3.63421 -3.6342 l -0.78545,-0.78546 -0.78546,-0.78545 h -0.77909 -0.7791 l -0.75545,0.61173 -0.75545,0.61172 v 3.89655 3.89654 l 0.75545,0.61173 0.75545,0.61173 h 0.91208 0.91209 z m 4.8449,2.17942 -0.36593,-0.44092 0.0867,-6.51908 0.0867,-6.51908 2.80522,-0.0925 2.80523,-0.0925 1.12887,0.53568 1.12887,0.53569 0.46591,0.90096 0.4659,0.90096 v 1.47178 1.47178 l -0.50125,0.96932 -0.50126,0.96932 -1.08847,0.45479 -1.08846,0.45479 h -1.77028 -1.77028 v 2.336 2.336 l -0.384,0.384 c -0.50655,0.50655 -1.0531,0.48586 -1.50357,-0.0569 z m 5.86997,-7.53964 0.5616,-0.62055 v -1.20659 -1.20658 l -0.70745,-0.57286 -0.70745,-0.57286 h -1.56455 -1.56455 v 2.4 2.4 h 1.7104 1.71041 z m 4.0816,7.59656 -0.384,-0.384 v -6.29682 -6.29682 l 0.46463,-0.3856 0.46462,-0.38561 0.57538,0.11024 0.57537,0.11025 2.4,4.38064 2.4,4.38063 0.16,-4.38445 0.16,-4.38446 h 0.8 0.8 l 0.0863,6.76336 0.0863,6.76336 -0.48626,0.1866 c -0.26744,0.10262 -0.68094,0.11189 -0.91888,0.0206 l -0.43262,-0.16602 -2.36738,-4.2846 -2.36737,-4.28461 -0.09,4.03993 -0.09,4.03993 -0.34918,0.42073 c -0.43478,0.52388 -0.98606,0.5375 -1.48682,0.0367 z m 10.88,0 -0.384,-0.384 v -6.29682 -6.29682 l 0.50682,-0.42062 0.50683,-0.42063 0.53317,0.33601 0.53318,0.33602 0.0869,6.32433 0.0869,6.32434 -0.36608,0.44109 c -0.4506,0.54295 -0.99711,0.5637 -1.50371,0.0571 z m 5.856,0.0787 c -0.352,-0.1456 -1,-0.65163 -1.44,-1.12451 l -0.8,-0.85979 -0.0879,-4.37521 -0.0879,-4.3752 0.40794,-0.76915 c 0.22436,-0.42304 0.7932,-1.05515 1.26409,-1.40469 l 0.85617,-0.63553 1.5788,-0.1517 1.57879,-0.1517 1.17914,0.55953 1.17913,0.55954 0.49195,0.95131 0.49194,0.95132 -0.19214,0.76553 -0.19213,0.76554 h -0.78781 -0.78781 l -0.20266,-0.80747 -0.20266,-0.80746 -0.67463,-0.47254 -0.67464,-0.47253 h -0.8888 -0.8888 l -0.64,0.64 -0.64,0.64 v 3.84 3.84 l 0.64,0.64 0.64,0.64 h 0.8888 0.8888 l 0.67464,-0.47254 0.67463,-0.47253 0.20266,-0.80747 0.20266,-0.80746 h 0.78781 0.78781 l 0.19213,0.76553 0.19214,0.76554 -0.49194,0.95131 -0.49195,0.95132 -1.10245,0.52315 -1.10246,0.52315 -1.39164,-0.0203 c -0.7654,-0.0112 -1.67964,-0.13941 -2.03164,-0.28501 z m 13.704155,-0.16163 -1.015845,-0.44188 -0.58416,-0.8913 -0.58415,-0.89131 -0.10498,-3.69429 -0.10499,-3.6943 0.42499,-1.24944 0.42498,-1.24943 0.85616,-0.63525 0.856175,-0.63525 1.55297,-0.14922 1.55297,-0.14922 1.16597,0.48718 1.16598,0.48717 0.52814,0.80605 0.52814,0.80604 -0.10325,0.90069 -0.10325,0.90068 -0.70153,0.0998 -0.70152,0.0998 -0.50179,-0.97035 -0.50179,-0.97035 -0.61565,-0.32949 c -0.3386,-0.18121 -0.98511,-0.32948 -1.43668,-0.32948 h -0.82104 l -0.64,0.64 -0.64,0.64 v 3.84 3.84 l 0.64,0.64 0.64,0.64 h 1.09677 1.09678 l 0.66322,-0.84316 c 0.36478,-0.46373 0.66323,-1.0493 0.66323,-1.30125 v -0.4581 l 0.88,0.10125 0.88,0.10126 0.10325,0.90068 0.10325,0.90069 -0.52814,0.80604 -0.52814,0.80605 -1.08483,0.45327 -1.08484,0.45327 -1.21027,-0.0125 -1.21028,-0.0125 z m 9.92,0 -1.01585,-0.44188 -0.58415,-0.89152 -0.58415,-0.89153 v -4.34815 -4.34815 l 0.58489,-0.89265 0.58489,-0.89266 1.08483,-0.45327 1.08483,-0.45327 h 1.14056 1.14056 l 1.08846,0.45479 1.08847,0.45479 0.50126,0.96932 0.50125,0.96932 v 4.19178 4.19178 l -0.50125,0.96932 -0.50126,0.96932 -1.08847,0.45479 -1.08846,0.45479 -1.21028,-0.0125 -1.21028,-0.0125 z m 3.7804,-2.06481 0.75545,-0.61173 v -3.89654 -3.89655 l -0.75545,-0.61172 -0.75545,-0.61173 h -0.7791 -0.77909 l -0.78546,0.78545 -0.78545,0.78546 v 3.6342 3.63421 l 0.65246,0.70034 0.65247,0.70034 h 0.91208 0.91209 z m 4.17945,2.14773 c -0.2112,-0.2112 -0.384,-0.63813 -0.384,-0.94874 v -0.56474 l 0.61682,-0.33012 0.61682,-0.33011 0.491,0.18842 0.491,0.18841 0.19862,0.6258 0.19862,0.62579 -0.38563,0.46464 -0.38562,0.46465 h -0.53681 c -0.29525,0 -0.70962,-0.1728 -0.92082,-0.384 z m 7.04933,0.11609 -0.40666,-0.2581 0.0867,-6.697 -0.0227,-6.68137 0.90937,-0.0156 0.87812,0.0156 0.0402,5.98438 0.0558,6 h 2.88298 2.88299 l 0.18575,0.48407 0.18576,0.48408 -0.39498,0.47592 -0.39499,0.47593 -3.24081,-0.005 -3.24082,-0.005 z m 9.28667,0.056 -0.4,-0.1614 v -5.89334 -5.89333 h -1.72576 -1.72577 l -0.19976,-0.52056 -0.19975,-0.52056 0.37194,-0.44817 0.37195,-0.44817 4.35358,0.0887 4.35357,0.0887 v 0.8 0.8 l -1.68,0.0967 -1.68,0.0967 v 5.56042 5.56042 l -0.50286,0.50286 c -0.52473,0.52474 -0.67609,0.55767 -1.33714,0.29093 z m 6.39333,-0.0329 -0.40666,-0.28117 0.0867,-6.697 0.0867,-6.69699 2.62007,-0.0926 2.62008,-0.0926 1.11503,0.46589 1.11504,0.46589 0.53449,0.81573 0.53448,0.81573 0.17114,3.131 0.17114,3.131 -0.38205,1.83339 -0.38205,1.83338 -0.96675,0.68839 -0.96676,0.68839 -2.77193,0.13639 -2.77193,0.13639 z m 5.73983,-2.62135 0.58684,-0.72471 v -3.4991 -3.49909 l -0.78545,-0.78546 -0.78546,-0.78545 h -1.61454 -1.61455 v 5.15962 5.15963 l 1.81316,-0.15036 1.81316,-0.15036 z m 3.80964,2.26879 -0.34051,-0.63624 0.19309,-0.50318 0.19309,-0.50318 h 0.93581 0.93581 l 0.20088,0.52349 0.20088,0.5235 -0.3236,0.5165 -0.32361,0.51651 -0.66567,0.0994 -0.66567,0.0994 z m -52.022805,-17.00326 -13.12,-0.20059 -1.64211,-0.50042 c -0.90317,-0.27523 -2.54794,-0.98321 -3.65506,-1.5733 l -2.01293,-1.07288 -1.57452,-1.59956 c -1.82867,-1.85773 -2.83528,-3.47332 -3.812,-6.11816 l -0.69959,-1.89443 -0.1819,-12.48 -0.18189,-12.48 -0.72564,-1.16689 -0.72563,-1.16689 -0.87437,-0.5842 -0.87436,-0.5842 -5.6,-0.22654 -5.6,-0.22653 -2.44593,-0.64057 -2.44593,-0.64057 -2.03407,-1.02435 c -6.68269,-3.36536 -10.87616,-8.2454 -13.45616,-15.659255 l -1.05791,-3.04 v -37.759995 -37.76 l 0.55066,-1.00605 c 0.76483,-1.39734 2.32015,-2.88863 3.88631,-3.72631 l 1.32303,-0.70764 h 9.28814 9.28815 l 1.5889,0.81747 1.5889,0.81747 1.03015,1.35061 1.03014,1.35061 0.33103,1.19192 0.33102,1.19192 0.002,29.44 0.002,29.44 0.5595,1.09725 0.55951,1.09725 0.9027,0.66275 0.9027,0.66275 11.4173,0.16702 11.4173,0.16703 1.76,0.71258 1.76,0.71258 1.48781,1.20039 c 2.35571,1.90063 3.871245,4.07463 4.845875,6.951285 l 0.32834,0.96911 0.20972,7.200005 0.20973,7.2 0.55548,1.28 0.55549,1.28 1.02378,1.06804 c 0.56308,0.58742 1.59978,1.37234 2.30378,1.74427 l 1.28,0.67622 5.6,0.12969 5.6,0.12968 1.34545,-0.36237 1.34545,-0.36236 1.01806,-0.85665 1.01806,-0.85664 0.51649,-1.13494 0.51649,-1.13494 0.16,-44.16 0.16,-44.16 0.67381,-1.45626 c 0.83647,-1.80781 2.43751,-3.65873 4.0396,-4.67009 l 1.22049,-0.77046 1.94813,-0.49909 1.94814,-0.49909 6.60491,0.10749 6.60492,0.1075 1.81811,0.89282 1.81812,0.89283 1.02807,1.17092 c 0.56545,0.644 1.33129,1.82623 1.70189,2.62717 l 0.67381,1.45626 v 61.92 61.92 l -0.60777,1.76 c -1.759,5.09373 -5.30307,8.7583 -10.27223,10.62149 l -1.92,0.71991 -15.52,0.0293 c -8.536,0.0161 -21.424,-0.061 -28.640005,-0.17132 z m 45.020425,-6.96592 2.12482,-1.04657 1.03503,-1.17882 1.03502,-1.17883 0.83235,-1.7746 0.83236,-1.7746 V 83.10002 22.22619 l -1.04615,-1.04617 -1.04616,-1.04617 h -6.31384 -6.31385 l -1.07046,0.64 -1.07045,0.64 -0.60955,1.18725 -0.60954,1.18725 v 42.67398 42.67398 l -0.34863,1.8859 -0.34863,1.8859 -0.77077,1.52106 c -0.42393,0.83658 -1.2228,2.03587 -1.77526,2.6651 l -1.00449,1.14404 -1.42893,0.83741 -1.42892,0.83741 -1.80719,0.42536 -1.80718,0.42536 -5.79632,0.005 -5.79633,0.005 -1.72367,-0.32448 -1.72368,-0.32447 -1.76,-0.85685 -1.76,-0.85684 -1.69324,-1.69106 -1.693255,-1.69105 -0.94013,-2.00901 -0.94013,-2.00902 -0.32662,-1.72229 -0.32663,-1.72229 v -5.65931 -5.659325 l -0.48893,-1.43493 -0.48893,-1.43493 -0.98202,-1.191355 -0.98202,-1.19137 -1.32905,-0.71071 -1.32905,-0.71071 -11.36,-0.16 -11.36,-0.16 -1.76,-0.835 -1.76,-0.835 -1.24458,-1.22369 -1.24457,-1.2237 -0.83543,-1.78131 -0.83542,-1.7813 -0.16,-30.14868 -0.16,-30.14869 -0.57143,-0.57132 -0.57143,-0.57131 h -7.85684 -7.85685 l -0.61172,0.75545 -0.61173,0.75545 0.006,35.08455 0.006,35.08455 0.47255,2.230815 0.47254,2.23082 1.13417,2.38824 1.13417,2.388235 1.32729,1.62095 c 0.73001,0.89151 2.05648,2.24058 2.94773,2.99791 l 1.62044,1.37698 1.93451,0.95471 c 1.06398,0.52509 2.71998,1.17012 3.68,1.4334 l 1.74549,0.47869 5.44,0.19313 5.44,0.19313 1.67893,0.61909 1.67893,0.61908 1.71141,1.56413 1.71141,1.56414 0.92966,2.01327 0.92966,2.01328 0.17951,12.48 0.17951,12.48 0.43403,1.12 c 0.69441,1.79192 1.79005,3.36051 3.10465,4.44482 l 1.2223,1.00817 1.76,0.71199 1.76,0.71199 17.120005,0.18331 c 9.416,0.10083 21.80351,0.17351 27.5278,0.16152 l 10.4078,-0.0218 z m -98.045165,0.58872 c -1.0036,-0.32089 -2.44856,-0.94902 -3.21101,-1.39585 l -1.38627,-0.81241 -1.5298,-1.63547 -1.52979,-1.63548 -1.00741,-2.15147 -1.0074,-2.15146 -0.12794,-2.91377 -0.12794,-2.91376 0.54717,-1.88218 c 0.98602,-3.39179 3.12248,-6.21875 6.15156,-8.13974 l 1.4727,-0.93396 1.79044,-0.52565 1.79043,-0.52564 h 2.4 2.4 l 1.79043,0.52564 1.79044,0.52565 1.4727,0.93396 c 3.02908,1.92099 5.16554,4.74795 6.15156,8.13974 l 0.54716,1.88218 -0.12793,2.91376 -0.12794,2.91377 -1.00741,2.15146 -1.0074,2.15147 -1.52979,1.63548 -1.5298,1.63547 -1.38247,0.81018 c -0.76035,0.4456 -2.25414,1.08148 -3.31952,1.41306 l -1.93705,0.60288 -2.29149,-0.0172 -2.29149,-0.0172 z m 7.57099,-6.27026 1.26625,-0.60768 1.18765,-1.2238 1.18766,-1.2238 0.50609,-1.4853 0.5061,-1.48531 -0.007,-1.463 -0.007,-1.46299 -0.65184,-1.44 c -0.35851,-0.792 -1.03934,-1.85421 -1.51297,-2.36048 l -0.86114,-0.92047 -1.6,-0.7564 -1.6,-0.7564 h -1.76 -1.76 l -1.6,0.7564 -1.6,0.7564 -0.86113,0.92047 c -0.47363,0.50627 -1.15446,1.56848 -1.51297,2.36048 l -0.65184,1.44 -0.007,1.47977 -0.007,1.47976 0.46159,1.3083 c 0.85061,2.41087 2.46648,4.0146 5.12344,5.08493 l 0.97497,0.39276 1.76,-0.093 1.76,-0.093 z m 29.33838,-69.95399 c -2.46366,-0.72055 -4.40704,-2.44429 -5.549,-4.92187 l -0.73563,-1.59601 -0.10933,-7.84 -0.10933,-7.84 0.35844,-1.61814 0.35843,-1.61813 0.98185,-1.19116 0.98185,-1.19115 1.23629,-0.63071 1.2363,-0.63071 h 4.445 4.445 l 0.97753,-0.34077 0.97753,-0.34077 0.33653,-0.85923 0.33653,-0.85923 0.0997,-4.96 0.0997,-4.96 0.87338,-1.66819 c 0.48036,-0.9175 1.30058,-2.15474 1.82271,-2.74941 l 0.94933,-1.08122 2.01127,-1.08761 2.011275,-1.08761 4.26975,-0.1151 4.26974,-0.11509 1.36679,0.52198 1.36678,0.52198 1.15361,1.1536 1.1536,1.1536 0.49978,1.31653 0.49979,1.31654 -0.0899,19.54361 -0.0899,19.54361 -0.88273,1.33366 -0.88274,1.33365 -1.33345,0.88273 -1.33346,0.88274 -13.463825,0.0562 -13.4638,0.0562 z m 26.131375,-6.10188 0.384,-0.384 V 50.82903 32.85221 l -0.4704,-0.3904 -0.4704,-0.3904 -3.0269,0.11122 -3.0269,0.11122 -0.88293,0.65977 c -0.48561,0.36287 -1.179825,1.05709 -1.542705,1.54269 l -0.65977,0.88293 -0.17203,5.3373 -0.17204,5.33731 -0.65669,1.44 -0.6567,1.44 -1.3122,1.18194 -1.3122,1.18194 -1.67715,0.49806 -1.67715,0.49806 h -4.25066 -4.25066 l -0.35343,0.66038 -0.35343,0.66039 0.10217,7.04642 0.10217,7.04643 1.04505,0.93319 1.04505,0.93319 h 11.93095 11.930955 z"
       id="path302"
       sodipodi:nodetypes="cscccccccccccccccccccccccccccccccccccccccccccccccccccccccccscccccccsscccccscccccccsccccccsscsscccccccccccccccccccssccccccccccccccccccccccccccccccccccccccccccccccccccccccccccccccccscccccccccccccccccccccccccccccccsscccccsccccccccccccssccscccssccccccccccccccccccccccccccccccccccccccccccccccccccccccccccccccsscccccccccssccccccccccccccccccccccccccccccccccccccccccccccccccccccsscccccccccsscccccccccccccccccccccccccccccccccccscccccccccccccccccccccccccccccccccccccccccccccccccsscsscccccccccccsscccsscccccccccccccccccccsscccccsscccccccccccsscccccccsscccsscsccccccccccccccccccccccsscccccccccccccccccccccccccccccccccccccccccccccccsscsscccccccccccsscccssccsscccccccsscccccccsscccccccsscccsccccccccsscccccccsscccssccccsscccccccccccccccccsscccccccccccccccccccsccccccccsccccccccccccccccccccc" />
  </g>
</svg>
